HIERARCHY
ROOT Hips
{
  OFFSET 279.157 85.6768 304.565
  CHANNELS 6 Xposition Yposition Zposition Zrotation Xrotation Yrotation
  JOINT LeftUpLeg
  {
    OFFSET 8.64259 1.95398 -2.38835
    CHANNELS 3 Zrotation Xrotation Yrotation
    JOINT LeftLeg
    {
      OFFSET 43.7702 0 0
      CHANNELS 3 Zrotation Xrotation Yrotation
      JOINT LeftFoot
      {
        OFFSET 40.6238 0 0
        CHANNELS 3 Zrotation Xrotation Yrotation
        JOINT LeftToeBase
        {
          OFFSET 12.7242 0 0
          CHANNELS 3 Zrotation Xrotation Yrotation
          End Site
          {
            OFFSET 0 0 0
          }
        }
      }
    }
  }
  JOINT RightUpLeg
  {
    OFFSET -8.2249 1.95398 -2.59336
    CHANNELS 3 Zrotation Xrotation Yrotation
    JOINT RightLeg
    {
      OFFSET 43.5653 0 0
      CHANNELS 3 Zrotation Xrotation Yrotation
      JOINT RightFoot
      {
        OFFSET 40.6238 0 0
        CHANNELS 3 Zrotation Xrotation Yrotation
        JOINT RightToeBase
        {
          OFFSET 12.7242 0 0
          CHANNELS 3 Zrotation Xrotation Yrotation
          End Site
          {
            OFFSET 0 0 0
          }
        }
      }
    }
  }
  JOINT Spine
  {
    OFFSET 0.165834 0.87714 6.61349
    CHANNELS 3 Zrotation Xrotation Yrotation
    JOINT Spine1
    {
      OFFSET 7.38963 1.71661e-005 0
      CHANNELS 3 Zrotation Xrotation Yrotation
      JOINT Spine2
      {
        OFFSET 11.9445 1.14441e-005 0
        CHANNELS 3 Zrotation Xrotation Yrotation
        JOINT Spine3
        {
          OFFSET 14.7254 4.19617e-005 0
          CHANNELS 3 Zrotation Xrotation Yrotation
          JOINT Spine4
          {
            OFFSET 10.9679 0 0
            CHANNELS 3 Zrotation Xrotation Yrotation
            JOINT RightShoulder
            {
              OFFSET 2.46616 -1.6653 3.69651
              CHANNELS 3 Zrotation Xrotation Yrotation
              JOINT RightArm
              {
                OFFSET 13.0012 0 0
                CHANNELS 3 Zrotation Xrotation Yrotation
                JOINT RightForeArm
                {
                  OFFSET 28.7848 1.52588e-005 0
                  CHANNELS 3 Zrotation Xrotation Yrotation
                  JOINT RightHand
                  {
                    OFFSET 26.5688 1.52588e-005 0
                    CHANNELS 3 Zrotation Xrotation Yrotation
                    End Site
                    {
                      OFFSET 0 0 0
                    }
                  }
                }
              }
            }
            JOINT LeftShoulder
            {
              OFFSET 2.38034 -1.29275 -3.7523
              CHANNELS 3 Zrotation Xrotation Yrotation
              JOINT LeftArm
              {
                OFFSET 16.3182 6.10351e-005 0
                CHANNELS 3 Zrotation Xrotation Yrotation
                JOINT LeftForeArm
                {
                  OFFSET 27.0901 0 0
                  CHANNELS 3 Zrotation Xrotation Yrotation
                  JOINT LeftHand
                  {
                    OFFSET 24.5451 1.52588e-005 0
                    CHANNELS 3 Zrotation Xrotation Yrotation
                    End Site
                    {
                      OFFSET 0 0 0
                    }
                  }
                }
              }
            }
            JOINT Neck
            {
              OFFSET 5.0226 -0.0266342 0
              CHANNELS 3 Zrotation Xrotation Yrotation
              JOINT Head
              {
                OFFSET 6.69364 2.86102e-005 0
                CHANNELS 3 Zrotation Xrotation Yrotation
                End Site
                {
                  OFFSET 0 0 0
                }
              }
            }
          }
        }
      }
    }
  }
}
MOTION
Frames:	7
Frame Time:	0.0416667
246.644 97.1128 226.331 -90.0541 44.3617 -88.3792 -175.779 27.4349 83.6681 -19.8041 10.0713 -3.74307 63.302 1.60502 -1.02189 17.1924 -5.54206 -2.14297 166.16 -22.2423 86.5144 -76.6994 -13.81 0.127495 57.446 1.31186 -1.12139 121.692 -19.3111 19.4218 2.90615 7.42806 -89.5828 12.0279 5.97476 0.180379 0.370708 5.97688 -0.0837252 -22.2661 5.64342 1.97347 -2.25345 5.64341 1.97346 90.7335 -16.2633 -111.594 37.0178 4.74699 2.42731 -80.5493 6.55569 -60.1976 2.52078 -5.87633 -47.7436 -83.141 -45.0628 88.5392 -11.4996 34.7507 31.7996 107.242 -44.1179 -65.5326 34.9518 -19.4686 -58.0174 16.4637 -11.9485 -8.13797 -11.0135 -9.34611 -0.0647557 
232.306 94.6476 210.735 -92.4001 38.4613 -91.9342 -171.551 23.7267 78.2809 -43.056 16.0223 -7.05831 76.1528 11.5898 5.44499 5.43016 -14.096 1.87707 158.497 -3.84646 87.3004 -110.475 -6.41214 -2.18657 55.372 -0.293884 -3.82893 68.2964 -11.8878 6.69461 1.26255 7.87546 -88.827 11.095 3.05774 2.03774 -0.573819 3.14444 1.90115 -23.1122 2.30421 2.86231 -3.09955 2.30417 2.86229 92.4641 -26.8309 -102.773 47.2553 -11.8503 10.4942 -59.7 56.663 -88.1641 29.5021 8.11914 24.1742 -92.4014 -56.9725 76.7789 -2.88297 11.0029 4.30396 50.1079 -19.9452 -95.503 26.0619 -17.0464 -64.9513 16.2189 -10.2745 -15.4619 -8.55955 -5.90752 4.18509 
219.26 93.1088 197.6 -92.1052 32.8975 -96.0694 -175.135 6.87848 73.6694 -43.4738 16.4553 -3.89165 87.7893 21.2823 3.85361 13.4035 -9.57838 2.7902 167.697 27.5891 76.2967 -128.286 -13.8547 -4.01583 51.3967 1.62014 -5.26802 13.0562 3.91589 5.177 -1.03021 7.73004 -88.1896 11.4078 -1.20509 3.72699 -0.268272 -1.04007 3.77631 -22.7734 -2.26876 3.19353 -2.76073 -2.26879 3.19351 94.2654 -27.3314 -98.9387 56.0566 -15.515 27.3411 -109.951 81.3827 -63.1937 54.329 15.4758 16.6599 -93.2105 -54.7078 75.1349 -3.68133 3.2129 -30.0691 32.5721 -3.42057 -78.1447 21.9636 -9.69887 -53.0289 18.0439 -4.59562 -16.4577 -13.3428 0.019132 4.17569 
204.302 94.6699 182.336 -90.9692 36.3621 -90.2254 -171.183 -9.0907 91.9374 -26.5171 16.9183 -2.27135 83.1879 18.478 2.55859 26.3964 -2.4084 4.11034 177.396 43.5802 90.2753 -115.999 -8.56305 -3.66579 65.2697 -5.18435 -7.89762 14.0465 3.13031 7.46748 -2.38057 7.49377 -89.2995 11.9418 -4.40218 1.88562 0.276907 -4.31491 2.0778 -22.319 -4.76501 0.472614 -2.30637 -4.765 0.47261 96.537 -20.3984 -95.5125 57.7641 -23.5811 42.0911 -101.691 -56.6672 -100.864 77.9665 20.3286 15.6283 -90.4988 -40.3688 75.6318 -4.56847 -9.10292 -45.319 160.483 19.183 -121.118 14.469 -19.1059 -86.8693 19.4951 5.07471 -13.0337 -16.2153 8.24077 6.11432 
187.185 98.6618 166.362 -91.6226 37.1178 -82.8701 -168.368 -26.9345 96.5857 -9.02127 21.6052 2.18329 53.1431 -2.73671 0.81154 24.8763 -1.81784 -1.00723 178.699 44.1385 96.4642 -80.6676 3.52876 -2.52008 71.5041 -6.03526 -4.15295 14.4356 2.97372 7.64357 -3.8573 7.63178 -90.5668 11.6239 -7.93846 -0.305952 -0.022676 -7.94419 0.0459851 -22.7369 -7.47739 -2.69108 -2.72426 -7.47738 -2.69108 98.1236 -8.47399 -94.8211 59.6259 -24.4816 51.1551 -23.3368 -27.228 -31.0485 -67.6335 24.8532 -49.8725 -85.6303 -21.4224 79.4652 -1.17906 -17.6203 -39.1947 153.741 11.8824 -133.094 -1.65095 -0.715143 -86.1375 24.0986 13.3859 -12.1925 -24.5195 14.8394 12.2799 
170.312 99.3018 150.156 -88.3511 37.8768 -81.9543 -166.654 -28.1229 99.7423 -20.9228 9.34212 3.38988 58.7598 -0.309238 2.23971 14.873 -9.18036 3.93827 -178.821 37.1641 96.1712 -35.7463 -11.0315 -1.51296 66.851 -4.65384 -3.02912 19.1425 1.83359 6.82102 -4.1349 7.64581 -91.4017 11.526 -8.881 -1.88292 -0.115193 -8.95522 -1.48719 -22.8432 -7.90253 -4.47952 -2.8305 -7.90254 -4.47953 98.7208 -3.43697 -94.4888 48.2326 -14.7498 53.2889 -14.6852 -25.0002 -42.0747 -11.3562 -2.38332 -27.9126 -83.9618 -3.65443 77.513 3.53601 -19.7241 -30.7534 116.737 22.5895 -130.359 -21.2189 11.7331 -64.6395 26.2563 14.7787 -16.2441 -26.3461 16.2687 18.9862 
154.333 97.7677 133.833 -93.2949 39.0883 -82.4579 -164.273 -28.2855 98.8265 -46.1504 1.10932 1.04582 59.9539 -0.694963 3.77355 19.1835 -5.48674 0.990235 -179.07 21.5645 93.8392 -4.5371 -19.6905 -1.14211 58.7309 -1.50234 -1.53721 22.897 1.39736 3.45218 -3.95396 7.61659 -90.9674 11.6292 -8.31839 -1.06481 -0.0150284 -8.35713 -0.695103 -22.7349 -7.61177 -3.52946 -2.72224 -7.61175 -3.52946 98.073 -6.16259 -96.6236 52.3519 -8.11578 56.0237 -29.9245 -35.8244 -50.8162 -48.481 0.165624 -12.7689 -83.3101 -7.57087 79.8008 5.7502 -8.7463 -31.6525 107.359 10.3131 -118.801 -37.6463 15.1885 -50.2446 19.9158 16.822 -7.85575 -21.2011 16.8619 12.0212 
